<svg xmlns="http://www.w3.org/2000/svg" xmlns:xlink="http://www.w3.org/1999/xlink" version="1.1" viewBox="0 0 1000 1000" xml:space="preserve">
<desc>Created with Fabric.js 3.5.0</desc>
<defs>
</defs>
<rect x="0" y="0" width="100%" height="100%" fill="rgba(0,0,0,0)"/>
<g transform="matrix(37.8788 0 0 37.8788 500.0001 500.0001)" id="189076">
<path style="stroke: none; stroke-width: 1; stroke-dasharray: none; stroke-linecap: butt; stroke-dashoffset: 0; stroke-linejoin: miter; stroke-miterlimit: 4; is-custom-font: none; font-file-url: none; fill: rgb(255,255,255); fill-rule: nonzero; opacity: 1;" vector-effect="non-scaling-stroke" transform=" translate(-12, -12)" d="M 12 0 c -6.627 0 -12 5.373 -12 12 s 5.373 12 12 12 s 12 -5.373 12 -12 s -5.373 -12 -12 -12 z m 3 8 h -1.35 c -0.538 0 -0.65 0.221 -0.65 0.778 v 1.222 h 2 l -0.209 2 h -1.791 v 7 h -3 v -7 h -2 v -2 h 2 v -2.308 c 0 -1.769 0.931 -2.692 3.029 -2.692 h 1.971 v 3 z" stroke-linecap="round"/>
</g>
</svg>